<?xml version="1.0" standalone="no"?>
<!DOCTYPE svg PUBLIC "-//W3C//DTD SVG 20010904//EN"
 "http://www.w3.org/TR/2001/REC-SVG-20010904/DTD/svg10.dtd">
<svg version="1.0" xmlns="http://www.w3.org/2000/svg"
 width="512.000000pt" height="512.000000pt" viewBox="0 0 512.000000 512.000000"
 preserveAspectRatio="xMidYMid meet">

<g transform="translate(0.000000,512.000000) scale(0.100000,-0.100000)"
fill="#000000" stroke="none">
<path d="M1915 4443 c-207 -27 -361 -90 -519 -212 -58 -45 -1235 -1316 -1308
-1413 -60 -80 -82 -148 -82 -258 1 -114 23 -182 87 -263 23 -28 312 -347 644
-709 400 -435 625 -673 670 -707 81 -61 213 -131 303 -161 154 -50 169 -51
1483 -48 1371 4 1260 -2 1435 79 250 116 418 326 473 594 18 85 19 158 19
1215 0 1057 -1 1130 -19 1215 -55 268 -223 478 -473 594 -175 81 -62 75 -1448
77 -679 1 -1248 0 -1265 -3z m2504 -268 c202 -48 373 -217 426 -422 23 -87 22
-2300 0 -2387 -42 -160 -160 -304 -306 -374 -46 -23 -111 -45 -143 -51 -40 -8
-451 -11 -1258 -11 -1348 0 -1281 -3 -1443 75 -53 25 -118 67 -157 102 -61 52
-1184 1271 -1246 1351 -32 42 -41 122 -19 172 18 41 1190 1323 1274 1393 73
61 217 132 308 151 106 22 2469 23 2564 1z"/>
<path d="M2413 3273 c-34 -7 -80 -58 -87 -97 -13 -66 12 -98 277 -363 l251
-253 -260 -262 c-206 -207 -262 -270 -267 -295 -21 -108 73 -188 170 -148 25
11 123 100 290 268 l253 251 257 -256 c272 -270 293 -286 365 -271 37 7 85 54
93 93 15 69 5 82 -268 357 l-261 263 260 262 c274 276 282 287 267 359 -7 39
-53 85 -92 92 -73 15 -82 8 -358 -266 l-263 -261 -262 261 c-212 209 -270 261
-297 267 -18 3 -36 5 -40 5 -3 -1 -16 -4 -28 -6z"/>
</g>
</svg>
